<svg xmlns="http://www.w3.org/2000/svg" width="42" height="36" viewBox="0 0 42 36">
  <g id="_4" data-name="4" transform="translate(-4413 3503)">
    <g id="Union_6" data-name="Union 6" transform="translate(4413 -3503)" fill="none">
      <path d="M3,36a3,3,0,0,1-3-3V6A3,3,0,0,1,3,3H5V2A2,2,0,0,1,7,0H8a2,2,0,0,1,2,2V3h4V2a2,2,0,0,1,2-2h1a2,2,0,0,1,2,2V3h4V2a2,2,0,0,1,2-2h1a2,2,0,0,1,2,2V3h4V2a2,2,0,0,1,2-2h1a2,2,0,0,1,2,2V3h2a3,3,0,0,1,3,3V33a3,3,0,0,1-3,3Z" stroke="none"/>
      <path d="M 38.99970245361328 34.40000152587891 C 39.77199172973633 34.40000152587891 40.40029907226563 33.77209854125977 40.40029907226563 33.00030136108398 L 40.40029907226563 6.00029993057251 C 40.40029907226563 5.228010177612305 39.77199172973633 4.599699974060059 38.99970245361328 4.599699974060059 L 36.99990081787109 4.599699974060059 L 35.39990234375 4.599699974060059 L 35.39990234375 2.99970006942749 L 35.39990234375 1.999799966812134 C 35.39990234375 1.77935004234314 35.22055053710938 1.600000023841858 35.00009918212891 1.600000023841858 L 34.00020217895508 1.600000023841858 C 33.77975082397461 1.600000023841858 33.60039901733398 1.77935004234314 33.60039901733398 1.999799966812134 L 33.60039901733398 2.99970006942749 L 33.60039901733398 4.599699974060059 L 32.00040054321289 4.599699974060059 L 27.99990081787109 4.599699974060059 L 26.39990043640137 4.599699974060059 L 26.39990043640137 2.99970006942749 L 26.39990043640137 1.999799966812134 C 26.39990043640137 1.77935004234314 26.22055053710938 1.600000023841858 26.00010108947754 1.600000023841858 L 25.00020027160645 1.600000023841858 C 24.77975082397461 1.600000023841858 24.60040092468262 1.77935004234314 24.60040092468262 1.999799966812134 L 24.60040092468262 2.99970006942749 L 24.60040092468262 4.599699974060059 L 23.00040054321289 4.599699974060059 L 18.99990081787109 4.599699974060059 L 17.39990043640137 4.599699974060059 L 17.39990043640137 2.99970006942749 L 17.39990043640137 1.999799966812134 C 17.39990043640137 1.77935004234314 17.22055053710938 1.600000023841858 17.00010108947754 1.600000023841858 L 16.00020027160645 1.600000023841858 C 15.77975082397461 1.600000023841858 15.60040092468262 1.77935004234314 15.60040092468262 1.999799966812134 L 15.60040092468262 2.99970006942749 L 15.60040092468262 4.599699974060059 L 14.00040054321289 4.599699974060059 L 9.999900817871094 4.599699974060059 L 8.399900436401367 4.599699974060059 L 8.399900436401367 2.99970006942749 L 8.399900436401367 1.999799966812134 C 8.399900436401367 1.77935004234314 8.220550537109375 1.600000023841858 8.000101089477539 1.600000023841858 L 7.000200748443604 1.600000023841858 C 6.779750823974609 1.600000023841858 6.600400447845459 1.77935004234314 6.600400447845459 1.999799966812134 L 6.600400447845459 2.99970006942749 L 6.600400447845459 4.599699974060059 L 5.000400543212891 4.599699974060059 L 2.999700784683228 4.599699974060059 C 2.227900743484497 4.599699974060059 1.600000739097595 5.228010177612305 1.600000739097595 6.00029993057251 L 1.600000739097595 33.00030136108398 C 1.600000739097595 33.77209854125977 2.227900743484497 34.40000152587891 2.999700784683228 34.40000152587891 L 38.99970245361328 34.40000152587891 M 38.99970245361328 36 L 2.999700784683228 36 C 1.342800736427307 36 6.805419729971618e-07 34.65719985961914 6.805419729971618e-07 33.00030136108398 L 6.805419729971618e-07 6.00029993057251 C 6.805419729971618e-07 4.343400001525879 1.342800736427307 2.99970006942749 2.999700784683228 2.99970006942749 L 5.000400543212891 2.99970006942749 L 5.000400543212891 1.999799966812134 C 5.000400543212891 0.8955000042915344 5.895000457763672 0 7.000200748443604 0 L 8.000101089477539 0 C 9.104400634765625 0 9.999900817871094 0.8955000042915344 9.999900817871094 1.999799966812134 L 9.999900817871094 2.99970006942749 L 14.00040054321289 2.99970006942749 L 14.00040054321289 1.999799966812134 C 14.00040054321289 0.8955000042915344 14.89500045776367 0 16.00020027160645 0 L 17.00010108947754 0 C 18.10440063476563 0 18.99990081787109 0.8955000042915344 18.99990081787109 1.999799966812134 L 18.99990081787109 2.99970006942749 L 23.00040054321289 2.99970006942749 L 23.00040054321289 1.999799966812134 C 23.00040054321289 0.8955000042915344 23.89500045776367 0 25.00020027160645 0 L 26.00010108947754 0 C 27.10440063476563 0 27.99990081787109 0.8955000042915344 27.99990081787109 1.999799966812134 L 27.99990081787109 2.99970006942749 L 32.00040054321289 2.99970006942749 L 32.00040054321289 1.999799966812134 C 32.00040054321289 0.8955000042915344 32.89500045776367 0 34.00020217895508 0 L 35.00009918212891 0 C 36.10440063476563 0 36.99990081787109 0.8955000042915344 36.99990081787109 1.999799966812134 L 36.99990081787109 2.99970006942749 L 38.99970245361328 2.99970006942749 C 40.65660095214844 2.99970006942749 42.00030136108398 4.343400001525879 42.00030136108398 6.00029993057251 L 42.00030136108398 33.00030136108398 C 42.00030136108398 34.65719985961914 40.65660095214844 36 38.99970245361328 36 Z" stroke="none" fill="#e50012"/>
    </g>
    <g id="Rectangle_262" data-name="Rectangle 262" transform="translate(4418 -3503)" fill="none" stroke="#e50012" stroke-width="1.6">
      <rect width="5" height="7" rx="2" stroke="none"/>
      <rect x="0.8" y="0.8" width="3.4" height="5.4" rx="1.2" fill="none"/>
    </g>
    <g id="Rectangle_263" data-name="Rectangle 263" transform="translate(4436 -3503)" fill="none" stroke="#e50012" stroke-width="1.6">
      <rect width="5" height="7" rx="2" stroke="none"/>
      <rect x="0.8" y="0.8" width="3.4" height="5.4" rx="1.2" fill="none"/>
    </g>
    <g id="Rectangle_264" data-name="Rectangle 264" transform="translate(4427 -3503)" fill="none" stroke="#e50012" stroke-width="1.6">
      <rect width="5" height="7" rx="2" stroke="none"/>
      <rect x="0.8" y="0.8" width="3.4" height="5.4" rx="1.2" fill="none"/>
    </g>
    <g id="Rectangle_265" data-name="Rectangle 265" transform="translate(4445 -3503)" fill="none" stroke="#e50012" stroke-width="1.6">
      <rect width="5" height="7" rx="2" stroke="none"/>
      <rect x="0.8" y="0.8" width="3.4" height="5.4" rx="1.2" fill="none"/>
    </g>
    <path id="Path_21" data-name="Path 21" d="M1934-601.427h40.036" transform="translate(2479.982 -2888.825)" fill="none" stroke="#e50012" stroke-width="1.6"/>
    <g id="Ellipse_16" data-name="Ellipse 16" transform="translate(4418 -3486)" fill="none" stroke="#e50012" stroke-width="1.6">
      <circle cx="2.5" cy="2.5" r="2.5" stroke="none"/>
      <circle cx="2.5" cy="2.5" r="1.7" fill="none"/>
    </g>
    <g id="Ellipse_23" data-name="Ellipse 23" transform="translate(4418 -3478)" fill="none" stroke="#e50012" stroke-width="1.6">
      <circle cx="2.5" cy="2.5" r="2.5" stroke="none"/>
      <circle cx="2.5" cy="2.5" r="1.7" fill="none"/>
    </g>
    <g id="Ellipse_17" data-name="Ellipse 17" transform="translate(4427 -3486)" fill="none" stroke="#e50012" stroke-width="1.6">
      <circle cx="2.5" cy="2.5" r="2.5" stroke="none"/>
      <circle cx="2.5" cy="2.5" r="1.7" fill="none"/>
    </g>
    <g id="Ellipse_22" data-name="Ellipse 22" transform="translate(4427 -3478)" fill="none" stroke="#e50012" stroke-width="1.6">
      <circle cx="2.5" cy="2.5" r="2.5" stroke="none"/>
      <circle cx="2.5" cy="2.5" r="1.7" fill="none"/>
    </g>
    <g id="Ellipse_18" data-name="Ellipse 18" transform="translate(4436 -3486)" fill="none" stroke="#e50012" stroke-width="1.6">
      <circle cx="2.5" cy="2.5" r="2.5" stroke="none"/>
      <circle cx="2.5" cy="2.5" r="1.7" fill="none"/>
    </g>
    <g id="Ellipse_21" data-name="Ellipse 21" transform="translate(4436 -3478)" fill="none" stroke="#e50012" stroke-width="1.6">
      <circle cx="2.5" cy="2.5" r="2.5" stroke="none"/>
      <circle cx="2.5" cy="2.5" r="1.7" fill="none"/>
    </g>
    <g id="Ellipse_19" data-name="Ellipse 19" transform="translate(4445 -3486)" fill="none" stroke="#e50012" stroke-width="1.6">
      <circle cx="2.5" cy="2.5" r="2.5" stroke="none"/>
      <circle cx="2.5" cy="2.5" r="1.7" fill="none"/>
    </g>
    <g id="Ellipse_20" data-name="Ellipse 20" transform="translate(4445 -3478)" fill="none" stroke="#e50012" stroke-width="1.6">
      <circle cx="2.5" cy="2.5" r="2.5" stroke="none"/>
      <circle cx="2.5" cy="2.5" r="1.7" fill="none"/>
    </g>
  </g>
</svg>
