<svg xmlns="http://www.w3.org/2000/svg" width="57.299" height="45.851" viewBox="0 0 57.299 45.851">
  <g id="_7" data-name="7" transform="translate(-4409.873 3370.453)">
    <g id="Subtraction_1" data-name="Subtraction 1" transform="matrix(0.921, -0.391, 0.391, 0.921, 4409.873, -3350.863)" fill="none">
      <path d="M47.138,28.528H3a3,3,0,0,1-3-3V3A3,3,0,0,1,3,0H47.138a3,3,0,0,1,3,3V8.337a5.649,5.649,0,0,0-.713-.045,5.582,5.582,0,0,0,0,11.164,5.653,5.653,0,0,0,.713-.045v6.118A3,3,0,0,1,47.138,28.528Z" stroke="none"/>
      <path d="M 47.13750457763672 26.92819976806641 C 47.90979385375977 26.92819976806641 48.53810501098633 26.30030059814453 48.53810501098633 25.52849960327148 L 48.53810501098633 21.00075912475586 C 44.9961051940918 20.56221199035645 42.24530410766602 17.53312301635742 42.24530410766602 13.87349987030029 C 42.24530410766602 10.21387672424316 44.9961051940918 7.184789180755615 48.53810501098633 6.746240139007568 L 48.53810501098633 3.000600099563599 C 48.53810501098633 2.228310108184814 47.90979385375977 1.600000023841858 47.13750457763672 1.600000023841858 L 2.999703645706177 1.600000023841858 C 2.227903604507446 1.600000023841858 1.600003600120544 2.228310108184814 1.600003600120544 3.000600099563599 L 1.600003600120544 25.52849960327148 C 1.600003600120544 26.30030059814453 2.227903604507446 26.92819976806641 2.999703645706177 26.92819976806641 L 47.13750457763672 26.92819976806641 M 47.13750457763672 28.52820014953613 L 2.999703645706177 28.52820014953613 C 1.345663666725159 28.52820014953613 3.649902282631956e-06 27.18254089355469 3.649902282631956e-06 25.52849960327148 L 3.649902282631956e-06 3.000600099563599 C 3.649902282631956e-06 1.346060037612915 1.345663666725159 7.476806729300733e-08 2.999703645706177 7.476806729300733e-08 L 47.13750457763672 7.476806729300733e-08 C 48.79204177856445 7.476806729300733e-08 50.13810348510742 1.346060037612915 50.13810348510742 3.000600099563599 L 50.13810348510742 8.336819648742676 C 49.9059944152832 8.307209968566895 49.66655349731445 8.29170036315918 49.4253044128418 8.29170036315918 C 46.34848403930664 8.29170036315918 43.84530258178711 10.79569053649902 43.84530258178711 13.87349987030029 C 43.84530258178711 16.95130920410156 46.34848403930664 19.45529937744141 49.4253044128418 19.45529937744141 C 49.66352462768555 19.45529937744141 49.90334320068359 19.44010925292969 50.13810348510742 19.41016006469727 L 50.13810348510742 25.52849960327148 C 50.13810348510742 27.18254089355469 48.79204177856445 28.52820014953613 47.13750457763672 28.52820014953613 Z" stroke="none" fill="#e50012"/>
    </g>
    <line id="Line_8" data-name="Line 8" x2="11" y2="25" transform="translate(4441.5 -3363.5)" fill="none" stroke="#e50012" stroke-width="1.6" stroke-dasharray="4"/>
  </g>
</svg>
