<svg xmlns="http://www.w3.org/2000/svg" width="54.445" height="37.916" viewBox="0 0 54.445 37.916">
  <g id="_8" data-name="8" transform="translate(-4518.7 3366.916)">
    <g id="Subtraction_3" data-name="Subtraction 3" transform="translate(4527 -3350)" fill="none">
      <path d="M15.2,21H0V0H38V21H23.524V10.715a.5.5,0,0,0-.5-.5H15.7a.5.5,0,0,0-.5.5V21Z" stroke="none"/>
      <path d="M 13.60010051727295 19.39969444274902 L 13.60010051727295 10.71539974212646 C 13.60010051727295 9.557729721069336 14.5423412322998 8.615900039672852 15.70050048828125 8.615900039672852 L 23.02380180358887 8.615900039672852 C 24.18196105957031 8.615900039672852 25.12420082092285 9.557729721069336 25.12420082092285 10.71539974212646 L 25.12420082092285 19.39868927001953 L 36.40069961547852 19.39791107177734 L 36.40069961547852 1.599999904632568 L 1.600000977516174 1.599999904632568 L 1.600000977516174 19.39890480041504 L 13.60010051727295 19.39969444274902 M 15.20010089874268 20.99979972839355 L 15.19910049438477 20.99979972839355 L 9.521484116703505e-07 20.99880027770996 L 9.521484116703505e-07 -1.358032193365943e-07 L 38.00070190429688 -1.358032193365943e-07 L 38.00070190429688 20.99779891967773 L 23.52420043945313 20.99880027770996 L 23.52420043945313 10.71539974212646 C 23.52420043945313 10.43997001647949 23.29972076416016 10.21589946746826 23.02380180358887 10.21589946746826 L 15.70050048828125 10.21589946746826 C 15.42458057403564 10.21589946746826 15.20010089874268 10.43997001647949 15.20010089874268 10.71539974212646 L 15.20010089874268 20.99880027770996 L 15.20010089874268 20.99979972839355 Z" stroke="none" fill="#e50012"/>
    </g>
    <path id="Path_27" data-name="Path 27" d="M2058.56-500.679l52.845-.109-8.684-16.494-35.47-.014Z" transform="translate(2460.94 -2848.62)" fill="none" stroke="#e50012" stroke-linecap="round" stroke-linejoin="round" stroke-width="1.6"/>
    <path id="Path_28" data-name="Path 28" d="M2073-513.433" transform="translate(2455.999 -2853.483)" fill="none" stroke="#707070" stroke-width="1.6"/>
    <line id="Line_9" data-name="Line 9" y2="16.082" transform="translate(4546.098 -3365.916)" fill="none" stroke="#e50012" stroke-width="1.6"/>
    <line id="Line_10" data-name="Line 10" x1="6.333" y2="16.082" transform="translate(4532.166 -3365.916)" fill="none" stroke="#e50012" stroke-width="1.6"/>
    <line id="Line_11" data-name="Line 11" x2="6.333" y2="16.082" transform="translate(4553.697 -3365.916)" fill="none" stroke="#e50012" stroke-width="1.6"/>
  </g>
</svg>
