<svg xmlns="http://www.w3.org/2000/svg" width="53.544" height="29.3" viewBox="0 0 53.544 29.3">
  <g id="_9" data-name="9" transform="translate(-4629.201 3359.3)">
    <path id="Union_8" data-name="Union 8" d="M35.681,25.047a5.884,5.884,0,0,1-1.065-2.161H17.13a5.7,5.7,0,0,1-9.189,3.567,5.89,5.89,0,0,1-2.652-3.567h-.68A4.648,4.648,0,0,1,0,18.2V15.169a4.651,4.651,0,0,1,3.407-4.482l7.929-2.171,4.759-6.227A5.852,5.852,0,0,1,20.745,0H36.436a5.8,5.8,0,0,1,4.949,2.725L45.068,8.6l4.173,1.905a4.636,4.636,0,0,1,2.7,4.235V18.2a4.648,4.648,0,0,1-4.609,4.684h-1.2a5.7,5.7,0,0,1-10.45,2.161Z" transform="translate(4630 -3358.5)" fill="none" stroke="#e50012" stroke-width="1.6"/>
    <g id="Ellipse_40" data-name="Ellipse 40" transform="translate(4635 -3343)" fill="none" stroke="#e50012" stroke-width="1.6">
      <circle cx="6.5" cy="6.5" r="6.5" stroke="none"/>
      <circle cx="6.5" cy="6.5" r="5.7" fill="none"/>
    </g>
    <g id="Ellipse_39" data-name="Ellipse 39" transform="translate(4664 -3343)" fill="none" stroke="#e50012" stroke-width="1.6">
      <circle cx="6.5" cy="6.5" r="6.5" stroke="none"/>
      <circle cx="6.5" cy="6.5" r="5.7" fill="none"/>
    </g>
  </g>
</svg>
